<svg xmlns:xlink="http://www.w3.org/1999/xlink" xmlns="http://www.w3.org/2000/svg" data-psh="true" aria-hidden="true" viewBox="0 0 20 20" class="is-inline" width="20" height="20"><path fill="#D1D2D3" fill-rule="evenodd" d="M1.856 1.612a.75.75 0 0 1 .73-.033l15.5 7.75a.75.75 0 0 1 0 1.342l-15.5 7.75A.75.75 0 0 1 1.5 17.75v-6.046c0-.68.302-1.29.78-1.704a2.246 2.246 0 0 1-.78-1.704V2.25a.75.75 0 0 1 .356-.638ZM3 3.464v4.832a.75.75 0 0 0 .727.75l6.546.204a.75.75 0 0 1 0 1.5l-6.546.204a.75.75 0 0 0-.727.75v4.832L16.073 10 3 3.464Z" clip-rule="evenodd" fill-opacity="0.7"></path></svg>
